<svg width="14" height="15" viewBox="0 0 14 15" fill="none" xmlns="http://www.w3.org/2000/svg" > <path fill-rule="evenodd" clip-rule="evenodd" d="M6.56247 0.0185343C6.13067 0.0878814 5.77426 0.321578 5.56011 0.675719C4.91207 1.74725 5.84479 3.04306 7.08054 2.78798C7.92293 2.61413 8.4079 1.75165 8.12913 0.92327C8.02135 0.603019 7.6036 0.1882 7.29165 0.0915841C6.99512 -0.00028345 6.80067 -0.0197548 6.56247 0.0185343ZM7.13874 0.768982C7.51146 0.963258 7.63922 1.42177 7.42232 1.78658C7.13538 2.26914 6.41253 2.26465 6.13323 1.77857C5.76038 1.12966 6.4679 0.419284 7.13874 0.768982ZM4.41915 1.5142C3.69232 1.80501 2.99439 2.22192 2.51888 2.64933L2.29792 2.84796L2.40836 2.92353C2.46912 2.96509 2.58676 3.05979 2.6698 3.13397L2.82076 3.26879L3.15596 3.00255C3.57936 2.66614 4.0828 2.37607 4.61002 2.16464C5.01659 2.00163 5.02158 1.9978 4.99962 1.86769C4.98742 1.79521 4.96439 1.65255 4.94848 1.55075C4.9134 1.32585 4.89347 1.32446 4.41915 1.5142ZM8.58979 1.68561L8.52695 2.00556L8.74897 2.08279C9.31724 2.28042 10.0565 2.69968 10.5192 3.08675L10.7416 3.27288L10.8948 3.13489C10.979 3.05901 11.0977 2.96178 11.1585 2.91883L11.2689 2.84081L11.048 2.64475C10.7621 2.3911 10.1198 1.96583 9.7315 1.77308C9.40611 1.61156 8.7849 1.36562 8.70235 1.36562C8.675 1.36562 8.6244 1.50963 8.58979 1.68561ZM1.12559 3.07913C0.82981 3.14308 0.516268 3.31753 0.351077 3.51007C-0.240039 4.19901 -0.0604419 5.27354 0.715 5.68749C1.1198 5.90359 1.59756 5.92541 2.02941 5.74756C2.28484 5.64236 2.60471 5.31361 2.73936 5.01793C2.84776 4.77979 2.85863 4.7134 2.841 4.3979C2.81643 3.95873 2.68544 3.68413 2.36536 3.40043C2.02707 3.10065 1.57175 2.98265 1.12559 3.07913ZM11.8714 3.06737C11.5601 3.1284 11.309 3.27245 11.0763 3.52344C10.8163 3.80379 10.7165 4.0631 10.7165 4.45836C10.7165 4.61753 10.7485 4.84016 10.7875 4.95307C10.8756 5.20789 11.229 5.5971 11.4819 5.71776C12.0576 5.99249 12.7119 5.88926 13.1535 5.45396C13.717 4.89849 13.705 3.99258 13.1268 3.43867C12.813 3.13802 12.2939 2.98452 11.8714 3.06737ZM1.7145 3.7767C1.79307 3.80906 1.92074 3.90663 1.99812 3.99358C2.25103 4.27746 2.24511 4.6519 1.98318 4.93769C1.48757 5.4784 0.633111 5.11799 0.694053 4.39389C0.736565 3.88838 1.24257 3.58233 1.7145 3.7767ZM12.5054 3.81747C13.153 4.17901 12.8905 5.19522 12.1487 5.19818C11.7505 5.19975 11.3794 4.84617 11.3794 4.46524C11.3794 3.90319 12.0096 3.54064 12.5054 3.81747ZM6.23139 4.91944C5.93989 5.21687 5.68636 5.46024 5.66793 5.46024C5.64951 5.46024 5.63444 5.37203 5.63444 5.26422V5.0682H5.23671H4.83898V5.68984V6.31148L4.44125 6.70169L4.04352 7.0919V8.69363V10.2954H5.08203H6.12055V9.46773V8.6401H6.78344H7.44632V9.46773V10.2954H8.46168H9.47704L9.48915 8.68418L9.50126 7.07304L8.13276 5.72212C7.38012 4.97916 6.76364 4.3729 6.7628 4.37495C6.762 4.37704 6.52288 4.62206 6.23139 4.91944ZM0.351209 6.43175C0.243689 7.01976 0.243822 8.02608 0.35143 8.58565C0.394076 8.80724 0.439241 8.98858 0.451835 8.98858C0.464386 8.98858 0.610971 8.93609 0.777532 8.87197C1.03584 8.77252 1.07738 8.74212 1.05983 8.66506C0.913821 8.02408 0.914307 6.98592 1.06094 6.34568C1.07883 6.26749 1.05387 6.24192 0.916914 6.19823C0.825745 6.16917 0.679469 6.10989 0.591792 6.0665L0.432434 5.98757L0.351209 6.43175ZM12.7578 6.14948C12.5158 6.24684 12.4822 6.27402 12.5031 6.35591C12.6487 6.92781 12.6488 8.08706 12.5032 8.65879C12.4822 8.74116 12.5179 8.76747 12.7949 8.87415C12.9685 8.94097 13.1164 8.98914 13.1236 8.98122C13.1616 8.93931 13.2409 8.44495 13.2799 8.00617C13.3432 7.2951 13.2177 6.01754 13.0861 6.03191C13.0589 6.03488 12.9112 6.0878 12.7578 6.14948ZM1.13668 9.16334C0.0130053 9.39456 -0.387863 10.7833 0.440079 11.5764C1.11207 12.2202 2.25947 12.024 2.71032 11.1883C2.81378 10.9966 2.82779 10.9211 2.82779 10.5567C2.82779 10.1917 2.81378 10.1167 2.70895 9.92041C2.41101 9.36284 1.7392 9.03937 1.13668 9.16334ZM11.7772 9.18695C11.3187 9.31083 10.9334 9.65683 10.7816 10.0809C10.7458 10.1809 10.7165 10.4024 10.7166 10.5731C10.7166 11.1014 11.0161 11.5735 11.512 11.8271C11.8009 11.9749 12.3268 11.9919 12.6708 11.8646C13.4066 11.5924 13.7807 10.6921 13.4505 9.98845C13.2911 9.64894 13.0947 9.44661 12.7787 9.29659C12.4397 9.13559 12.1035 9.09878 11.7772 9.18695ZM1.81472 9.9245C2.26239 10.1831 2.30795 10.7642 1.90771 11.1106C1.42402 11.5292 0.684905 11.187 0.684905 10.5444C0.684905 10.3229 0.754596 10.1472 0.890398 10.026C1.1544 9.79051 1.51435 9.75101 1.81472 9.9245ZM12.469 9.88769C12.8352 10.059 12.9878 10.53 12.7966 10.8993C12.5794 11.319 12.02 11.4229 11.6592 11.1106C11.3727 10.8627 11.3079 10.5557 11.4717 10.2222C11.6451 9.86905 12.1017 9.71589 12.469 9.88769ZM2.67205 11.8791C2.58778 11.9544 2.46912 12.05 2.40836 12.0916L2.29792 12.1671L2.51888 12.367C2.8353 12.6531 3.52099 13.0952 3.97069 13.3029C4.32736 13.4677 4.80756 13.6495 4.88595 13.6495C4.90416 13.6495 4.93333 13.5466 4.95078 13.4208C4.96824 13.295 4.99895 13.1492 5.01906 13.0969C5.05203 13.0109 5.0332 12.9945 4.82576 12.928C4.29532 12.7581 3.53027 12.3273 3.04769 11.9268L2.82527 11.7422L2.67205 11.8791ZM10.5681 11.888C10.1102 12.2785 9.26558 12.7595 8.74411 12.9269L8.51727 12.9997L8.554 13.1613C8.57424 13.2501 8.60296 13.3981 8.6179 13.4902C8.64318 13.646 8.65321 13.6555 8.76382 13.6285C9.26775 13.5052 10.1132 13.0696 10.7127 12.6244C11.2749 12.207 11.2997 12.177 11.1582 12.0862C11.0981 12.0476 10.979 11.9545 10.8937 11.8793L10.7386 11.7426L10.5681 11.888ZM6.48929 12.212C5.84492 12.344 5.3657 12.9117 5.35718 13.5533C5.35121 14.0035 5.46275 14.2727 5.78518 14.5864C6.10769 14.9002 6.3549 15.0004 6.80553 15C7.21603 14.9997 7.56484 14.8418 7.85298 14.5259C8.09847 14.2568 8.20868 13.9634 8.2043 13.5909C8.20041 13.2572 8.15052 13.0889 7.97605 12.821C7.66945 12.35 7.05142 12.0969 6.48929 12.212ZM7.2182 12.9911C7.66215 13.3026 7.61823 13.9962 7.13874 14.2461C6.89979 14.3706 6.69103 14.3733 6.44324 14.2551C5.87038 13.9818 5.91691 13.1383 6.51828 12.8945C6.66611 12.8346 7.07572 12.8911 7.2182 12.9911Z" fill="#E53935" /> </svg>